<mxfile host="app.diagrams.net" modified="2024-04-03T19:51:14.880Z" agent="Mozilla/5.0 (Windows NT 10.0; Win64; x64) AppleWebKit/537.36 (KHTML, like Gecko) Chrome/122.0.0.0 Safari/537.36" version="24.2.2" etag="WMHIx9BiD5PUandCjV8u" type="github">
  <diagram name="Page-1" id="NRXRGd4BtMGc8GIOfivg">
    <mxGraphModel>
      <root>
        <mxCell id="0" />
        <mxCell id="1" parent="0" />
      </root>
    </mxGraphModel>
  </diagram>
</mxfile>
